<?xml version="1.0" encoding="utf-8"?>
<!-- Generator: Adobe Illustrator 23.0.3, SVG Export Plug-In . SVG Version: 6.00 Build 0)  -->
<svg version="1.1"
	 id="svg" xmlns:cc="http://creativecommons.org/ns#" xmlns:dc="http://purl.org/dc/elements/1.1/" xmlns:inkscape="http://www.inkscape.org/namespaces/inkscape" xmlns:rdf="http://www.w3.org/1999/02/22-rdf-syntax-ns#" xmlns:sodipodi="http://sodipodi.sourceforge.net/DTD/sodipodi-0.dtd" xmlns:svg="http://www.w3.org/2000/svg"
	 xmlns="http://www.w3.org/2000/svg" xmlns:xlink="http://www.w3.org/1999/xlink" x="0px" y="0px" viewBox="0 0 875 589"
	 style="enable-background:new 0 0 875 589;" xml:space="preserve">
<style type="text/css">
	.st0{fill-rule:evenodd;clip-rule:evenodd;fill:#CC6633;stroke:#333333;stroke-width:0.9706;stroke-linejoin:round;}
	.st1{fill-rule:evenodd;clip-rule:evenodd;fill:#FFCC66;stroke:#333333;stroke-width:0.9706;stroke-linejoin:round;}
</style>
<sodipodi:namedview  bordercolor="#666666" borderopacity="1" gridtolerance="10" guidetolerance="10" id="namedview69" inkscape:current-layer="svg2" inkscape:cx="817.66365" inkscape:cy="409.3738" inkscape:pageopacity="0" inkscape:pageshadow="2" inkscape:window-height="1137" inkscape:window-maximized="1" inkscape:window-width="1920" inkscape:window-x="1192" inkscape:window-y="118" inkscape:zoom="0.80893016" objecttolerance="10" pagecolor="#ffffff" showgrid="false">
	</sodipodi:namedview>
<path id="MA" inkscape:connector-curvature="0" class="st0" d="M831.3,153.1l-0.3-0.2v0.3L831.3,153.1L831.3,153.1z M828.4,150.4
	l0.7-0.3v-0.4L828.4,150.4L828.4,150.4z M840.4,142.9l-0.1-1.4l-0.2-0.8L840.4,142.9z M798,132.9l-0.7,0.3l-5.5,1.7l-1.9,0.7
	l-2.2,0.7l-0.8,0.3v0.3l0.3,5l0.3,4.7l0.3,4.3l0.5,0.3l1.7-0.5l7.9-2.3l0.2,0.5l14-5.3l0.1,0.2l1.3-0.5l4.5-1.7l4.3,5.1l0,0l0.6-0.5
	l0.3-1.5l-0.1,2.3l0,0h1l0.3,1.2l0.9,1.7l0,0l4.6-5.5l3.8,1.3l0.9-1.9l6.2-3.3l-2.6-5.1l0.7,3.3l-3.2,2.4l-3.6,0.3l-7.2-7.7
	l-3.2-4.9l3.2-3.4l-3.3-0.2l-1.4-3.2l-0.1-0.2l-5.5,6l-12.2,4.1L798,132.9L798,132.9z"/>
<path id="MN" inkscape:connector-curvature="0" class="st0" d="M433.5,73.8l1.9,6.9l4.1,24.8l1.9,9.9l0.6,8.7l2.2,5.2l0.5,4.5
	l0.4,1.5l-0.1,0.3l-3.9,6.4l2.5,4.3l4.9,34.2l0.2,4.5l4.9-0.3l19.1-1.1l47.8-4l4.8-0.5v-0.5l-1.4-7.5l-5.9-3l-4.7-4.9l-7.4-4.5
	l-2.3-0.2L500,156l1-13.4l-3.4-3.1l1.2-5.4l6.2-5.6l-1.1-11.6l2.2-2.5l0,0l7.6-8l8.6-11.1l3.3-2.3l5.8-2.8l6.1-4.6l-4.1,0.8
	l-2.4-1.8l-9.3,1.3l-1.5-1.7l-8.3,3.4l-6.7-2.8l-1.8-2.2l-5.3,0.4l-3.6-1.8l1.2-1.4l-4.6-1.5H487l-6.5,2.8l-1.3-1.9L469,77.4
	l-3.5-8.7l-0.4-2.6l-4.5-1.3l0.4,7.5l-11.8,0.9l-14.7,0.6H433.5L433.5,73.8z"/>
<path id="MT" inkscape:connector-curvature="0" class="st0" d="M340.7,73l-32.1-2.1l-23.4-2.2L261.9,66l-14.5-1.9l-23.1-3.6
	l-11.6-1.9l-25.8-5l-2.7-0.6L180,72.7l1.8,3.6l1.5,5.5l-0.9,0.8l1.8,5l2.5,2.1l7.2,12l0.7,2l2.9-0.2l-3.4,15.9l-1.4,0.4l-1.8,5.3
	l9.6,0.7l0.8,4.5l5.4,13.3l1,0.8l3.8,7.8l1-0.8l8.1-0.1l10.2,1.1l2.5-3.3l3,5.4l0.6,0.3l0.1-0.6l1.4-9.5l33.2,4.1l26.5,2.5l14,1.2
	L337,154l1.3,0.1h0.3l0.1-1.4l0.3-6.7l0.4-8.8l0.1-2.2l0.2-3.9l1.6-30.5l1.3-23.7l0.1-3.9L340.7,73L340.7,73z"/>
<path id="ND" inkscape:connector-curvature="0" class="st0" d="M431.5,73.8l-29.3,0.6l-20.5-0.1l-17.6-0.4l-20.6-0.8l-1.1-0.1
	l-0.1,3.9l-1.3,23.7l-1.6,30.5l-0.2,3.9l3.8,0.2l42.8,1.2l39.5-0.3l16.4-0.5l3.3-0.2l-0.4-1.5l-0.5-4.5l-2.2-5.2l-0.6-8.7l-1.9-9.9
	l-4.1-24.8l-1.9-6.9L431.5,73.8L431.5,73.8z"/>
<path id="HI" inkscape:connector-curvature="0" class="st0" d="M291.3,515l-3-2.2l-2.6,0.7l0.6,5.4l-3.6,4.5l3.1,7.1l0.9,7.3
	l3.6,2.3l2.2-3.6l4-2.9l4.9-1.3l5.3-4.6l-5.2-4.5l-0.1-2.7L291.3,515L291.3,515z M273.7,507.1l-1.5-1.3l-1.4,1.8L273.7,507.1
	L273.7,507.1z M266.4,503l0.4-3.6l-1.8-0.3L266.4,503L266.4,503z M272.5,497l-1.7,0.8l1.2,3.7l2.5,0.2l0.8,3.2l2.7,1.2l6-2.8
	l-5.6-4.7L272.5,497L272.5,497z M260.1,493.1l-0.9,2.6l4.2-0.1l3.9,1l-2-3.2L260.1,493.1L260.1,493.1z M247.9,485.4l-2.2-2.1
	l-4.3,3.3l2.7,5l1.9-2l5.5,1.2l-0.5-2.3L247.9,485.4L247.9,485.4z M204.4,481.1l0.6-1.4l1.7-0.9L204.4,481.1L204.4,481.1z
	 M219.8,472.3l-6.8,2.5l-0.7,1.8l2.7,1.9l3.8,1l2.7-5.3L219.8,472.3L219.8,472.3z M172.7,454.4L172.7,454.4l-0.2-0.1L172.7,454.4z
	 M121.3,441.7v0.2h0.1L121.3,441.7z M94.3,437.3L94.3,437.3L94.3,437.3L94.3,437.3z M93.2,435.3L93.2,435.3L93.2,435.3L93.2,435.3z
	 M92.4,434.3h-0.2v0.1L92.4,434.3z M93,434.3L93,434.3L93,434.3L93,434.3z M93,434.2L93,434.2L93,434.2L93,434.2z M62.5,409.2
	l-0.1-0.3v0.1L62.5,409.2L62.5,409.2z"/>
<path id="ID" inkscape:connector-curvature="0" class="st0" d="M184.1,52.9l-8.6-1.7l-2.8-0.7l-1.3-0.3l-11.3,50.7l0.5,4.2l-0.4,4.4
	l0.2,1v0.1l0.1,1.8l3.3,3.6l-4.8,11.9L149,141l-0.3,2.4l2.6,6.2l-9.2,38.2l-0.4,2l2.7,0.6l27.5,5.4l11,2l2.8,0.5l2.7,0.5l14,2.2
	l25,3.8l2.8,0.4l0.4-3.2l0.9-6.3l3.3-25.2l1.7-12.5l0.4-3.2l-0.6-0.3l-3-5.4l-2.5,3.3l-10.2-1.1l-8.1,0.1l-1,0.8l-3.8-7.8l-1-0.8
	l-5.4-13.3l-0.8-4.5l-9.6-0.7l1.8-5.3l1.4-0.4l3.4-15.9l-2.9,0.2l-0.7-2l-7.2-12l-2.5-2.1l-1.8-5l0.9-0.8l-1.5-5.5l-1.8-3.6
	L184.1,52.9L184.1,52.9L184.1,52.9z"/>
<path id="WA" inkscape:connector-curvature="0" class="st1" d="M67.1,77.1l0.1-1.7L67,75.5L67.1,77.1L67.1,77.1z M87.8,68.2l0.6-1
	l-0.7-0.1L87.8,68.2L87.8,68.2z M86,66.5l0.6-1.9L86,64.4V66.5z M93,63.7l-0.1-1.9l-1.7,2.5L93,63.7L93,63.7z M93.2,59.6l0.3-1.9
	l-0.2-0.5L93.2,59.6L93.2,59.6z M93.5,50.1L93.4,49L93,48.9L93.5,50.1L93.5,50.1z M96.6,43.7l-0.9-0.1L94,46.3L96.6,43.7z M94.2,41
	l0.5-0.4l0.1-0.3L94.2,41L94.2,41z M93.7,41.3l-0.3-1.9l-0.9,1.7L93.7,41.3L93.7,41.3z M93.2,38.6l-0.9-0.4l0.7,1L93.2,38.6
	L93.2,38.6z M96.2,40.3V39l-0.3,0.5L96.2,40.3z M97,39l-0.4-0.3h-0.1L97,39L97,39z M91.5,36.9L91,36.5l-0.2-0.1L91.5,36.9z
	 M95.1,36.5l-2.6,0.7l0.7,0.2L95.1,36.5z M93,36.3l-0.5-0.6l-0.1,0.1L93,36.3L93,36.3z M95,35.1h-0.4l0.5,0.2L95,35.1L95,35.1z
	 M76,84.9l3.5,3.8L78.9,96l0.7,1.8l5.2,2.8l14.8,1.4l0.6,1.7l7,0.1l6.6,0.9l10.8-1.2l5.3,0.9l1.5-0.7l27.3,6.2l1.8,0.4l-0.2-1
	l0.4-4.4l-0.5-4.2L171.5,50l-1.6-0.3l-22.7-5.3l-19.8-5L105,33.2l-6.7-1.7l1.6,8.4l-1.5,2.7l-2.6-1.4l2.5,11.7l-2.7,3.9l-1.3,3.6
	v3.7l-5.7,4l-2.4-1.6l-2.3,1.2l4.3-5.5L87.1,66l2.4-2.6l1.9,0.4l-0.6-4.9l1.3,0.2l2.6-5.8l-0.9-0.9l-3.4,4.4l-2.2,0.1l2.4-2.7
	l2.7-0.7l-1-5l-2.7-0.7l-1.4-2.3l-1.7,0.9l-8.9-3.9l-7.9-6.1l-2.1,5.9l-0.2,2.5l1.7,4.5L68,63.9l-0.8,2.2l4.4,0.4l-4.4,3.1l2.3,1.2
	L67.7,77l-0.9-4.9l-1.7,5.6l2.2,2.7l2.4-0.2l2.9,1.7l1.5,2.8L76,84.9L76,84.9L76,84.9z"/>
<path id="AZ" inkscape:connector-curvature="0" class="st1" d="M247.2,309.9l-32.7-4.1l-17.6-2.5l-25-4l-2.5-0.4v0.2l-4.3,18.8
	l-2.2-0.1l-3.4-3l-4.3,3.6l-0.1,15.4l-1.6,3.3v0.3v0.1l-0.2,2.4l3.4,9.1l3,4.1l-5.4,3.2l-2.1,4l-3.5,8.5l-1.7,0.4l-0.1,7.1l3,2.2
	l-1.6,4.3l-3.5,0.2l0,0l-2,3.8l7,4.4l13.2,7.4l40.8,21.6l34.6,4.3h0.4l2.7-28.6l0.7-7.1l7.3-75.1l0.4-3.5L247.2,309.9L247.2,309.9z"
	/>
<path id="CA" inkscape:connector-curvature="0" class="st1" d="M81,363.8l0.4,2.1v0.4L81,363.8L81,363.8z M66.7,355.4l0.7,1.5
	l0.4-0.1L66.7,355.4L66.7,355.4z M83.7,355.1l0.3,2.5l1.7,1.3L83.7,355.1z M72,341.4l-1.1-0.3l0.9,0.4L72,341.4L72,341.4z
	 M61.2,338.4l-2.6,1.6l0.7,0.7L61.2,338.4z M56.2,336.6l-0.2,0.8l0.9,0.2L56.2,336.6L56.2,336.6z M64.7,338.5l4.3,2.4l0.8-0.7
	L64.7,338.5z M31.6,253L31.6,253L31.6,253L31.6,253z M42,253.5l-0.1-0.3L42,253.5L42,253.5L42,253.5z M98,179.8l-3.8-1l-41.5-11.5
	l-15.4-4.7v0.4l-0.9,9.6L32.3,184l-6.8,8.4l-0.2,4.3l3.3,5.9l1.7,7.8l-2.3,6.3l0.4,6.3l-1.2,2.6l4,8.6l2.5,3.3l-0.2,9.4l6,5.7
	l3.5-5.8l3.8,3l1.5-1.4l-5.2,1l-0.1,5l1.1,6.2L41,258l-1.7-3.8l-0.5,5.2l1.4,10.4l5.4,6.7l-3.6,4.7l0.6,5.9l3.9,6l6.8,18.6l2.1,1.2
	l-0.7,12.9l1.1,1.6l14.6,5.2l4.5,4.8l1.6,3.1l4.3,2.4l4.7,0.9l1.9,5.3l3.9,1.8l5.8,6.9l5.4,9l-0.4,8.3l3,4l39.7,3.9l0,0l3.5-0.2
	l1.6-4.3l-3-2.2l0.1-7.1l1.7-0.4l3.5-8.5l2.1-4l5.4-3.2l-3-4.1l-3.4-9.1l0.2-2.4v-0.1L151,334l-7.8-10.4l-15-21.2l-21-30.1L95.4,256
	l-11.5-16.5l13.2-56L98,179.8L98,179.8z"/>
<path id="CO" inkscape:connector-curvature="0" class="st0" d="M364.6,255.5l0.4-19l-4.7-0.2l-23.7-0.9l-2.3-0.1l-1.9-0.1l-28.8-1.8
	l-19.2-1.6l-24-2.3l-2.3-0.3l-0.3,2.5l-5.2,50.6l-1.8,17.7l-0.8,7.7l-0.2,2.5l3,0.3l48.9,4.3l21.5,1.4l21.5,1l3.1,0.1l1.9,0.1
	l4.1,0.1l1.9,0.1l6.1,0.2h1.6v-1.9l1.1-51.3l0.1-5.7v-1.8L364.6,255.5L364.6,255.5z"/>
<path id="NV" inkscape:connector-curvature="0" class="st1" d="M169.8,295.8l10.1-62.8l5.1-31.4l0.6-3.1l-2.8-0.5l-11-2l-27.5-5.4
	l-2.7-0.6l-2.7-0.6l-13.7-3l-24.6-5.8l-2.7-0.7l-0.9,3.7l-13.2,56l11.5,16.5l11.8,16.4l21,30.1l15,21.2l7.8,10.4l2.5,3.4v-0.3
	l1.6-3.3l0.1-15.4l4.3-3.6l3.4,3l2.2,0.1l4.3-18.8v-0.2L169.8,295.8L169.8,295.8z"/>
<path id="NM" inkscape:connector-curvature="0" class="st1" d="M347.5,324.8l0.1-2.5l0.1-2.5l0.1-2.5l-3.1-0.1l-21.5-1l-21.5-1.4
	l-48.9-4.3l-3-0.3l-0.4,3.5l-7.3,75.1l-0.7,7.1l-2.7,28.6l0.4,0.1l13.4,1.3l1.3-6.8l2.4-1.9l27.2,2.4h0.2l-2.4-4.8l12.3,0.9
	l30.8,1.7l19.2,0.9l3.3-91l0.7,0.1L347.5,324.8L347.5,324.8z"/>
<path id="OR" inkscape:connector-curvature="0" class="st1" d="M37.2,162.8l15.4,4.7L94.1,179l3.8,1l2.7,0.7l24.6,5.8l13.7,3
	l2.7,0.6l0.4-2l9.2-38.2l-2.6-6.2l0.3-2.4l10.1-13.2l4.8-11.9l-3.3-3.6l-0.1-1.8v-0.1l-1.8-0.4l-27.3-6.2l-1.5,0.7l-5.3-0.9
	l-10.8,1.2l-6.6-0.9l-7-0.1l-0.6-1.7L84.7,101l-5.2-2.8l-0.7-1.8l0.6-7.3l-3.5-3.8l-0.3,0.1l-0.7,0.5L70,83.4l-2.9,0.9l-1.9-1
	l-2,8.3l-1.4,2.3l-6,14.7l-1.7,8.1l-1.1,0.1l-5.6,13.4l-3.8,5.7l-1.4,1l-3.5,6.8l-0.7,7.2l-2.1,6.4L37.2,162.8L37.2,162.8
	L37.2,162.8z M72.8,83.1l-0.3-0.9l-0.1,0.7L72.8,83.1L72.8,83.1z"/>
<path id="UT" inkscape:connector-curvature="0" class="st1" d="M227.4,205l-25-3.8l-14-2.2l-2.7-0.5l-0.6,3.1L180,233l-10.1,62.8
	l-0.5,3.1l2.5,0.4l25,4l17.6,2.5l32.7,4.1l2.5,0.3l0.2-2.5l0.8-7.7l1.8-17.7l5.2-50.6l0.3-2.5l-1.9-0.2l-24.8-3l-3.8-0.5l2.4-18.9
	l0.2-1.3L227.4,205L227.4,205z"/>
<path id="WY" inkscape:connector-curvature="0" class="st0" d="M336.4,192.2l0.8-15.1l1-20.4l0.1-2.5L337,154l-24.9-1.5l-14-1.2
	l-26.5-2.5l-33.2-4.1l-1.4,9.5l-0.1,0.6l-0.4,3.2l-1.7,12.5l-3.3,25.2l-0.9,6.3l-0.4,3.2l-0.2,1.3l-2.4,18.9l3.8,0.5l24.8,3l1.9,0.2
	l2.3,0.3l24,2.3l19.2,1.6l28.8,1.8l1.9,0.1l0.1-2.5l0.5-10.2l0.9-17.8l0.4-7.6l0.1-2.5L336.4,192.2L336.4,192.2z"/>
<path id="AR" inkscape:connector-curvature="0" class="st0" d="M565.5,328.1l-10.5,1.6l4.3-6.8l-1.8-3.8l-37,3.6l-31.3,2.5l-4.6,0.3
	l0.6,2.7l3.8,19.6l0.1,4.4l1.1,26.4l0.1,4.4l0.3,0.1l1.5,1.6l5.8-0.2l0.6,8.5l0.2,2.4l3-0.3l9.2-0.7l36.6-3.4h0.2l-0.1-2.1l1-0.7
	l-1.7-3.3l3.7-15.5l-1.5-1.7l5.5-6.1l-0.4-5.2l4.1-6.8v-0.1l-0.2-0.2l3.5-3.2l-1-3.9l2.7-4.3l-0.6-4L565.5,328.1L565.5,328.1
	L565.5,328.1L565.5,328.1z"/>
<path id="IA" inkscape:connector-curvature="0" class="st0" d="M536.5,197.7l-5.3-2.8l-2.9-4l-1-5.7l0.8-2.6l-2.8-3.4l0,0l-4.8,0.5
	l-47.8,4l-19.1,1.1l-4.9,0.3l-2,0.1l1.7,10.8l-1.4,5l2.1,3.2v0.7l0.7,0.1l3.1,9.1l3,4.8l0.2,5.4l3.3,4.6l-0.6,1.9l3,12.2v0.3l0,0
	l19.9-0.6l21.3-1.8l20.9-2.6l4.8,4.2l0.2,0.2l0.9-0.4l-0.7-3.8l3.6-2.2l1.5-9.9l-1.5-0.7l0.9-5l4.4-0.9l4.9-3.5l2.1-6.1l0.1-3.1
	l-3.9-3.7l-1.2-2.3l-3.7-2.3l0.2-0.5V197.7L536.5,197.7z"/>
<path id="KS" inkscape:connector-curvature="0" class="st0" d="M483.9,312.7l-2.4-41.1l-4.4-2.5l-0.4-1.9l-3.5-3.1l3.4-4.2l-1.4-2.4
	l-2.5,0.1l-2.3-1.7l-1-0.8l-3.3,0.2l-35.8,1.4l-16.4,0.4h-32.6l-13.1-0.2l-3.7-0.1v1.8l-0.1,5.7l-1.1,51.3v1.9l4.2,0.1l22.5,0.3
	l52.7-0.8l37.6-1.7l3.7-0.3L483.9,312.7L483.9,312.7z"/>
<path id="MO" inkscape:connector-curvature="0" class="st0" d="M528.7,242.4l-4.8-4.2l-20.9,2.6l-21.3,1.8l-19.9,0.6l0,0l-0.1,0.6
	l2.4,4.7l2.2,1.6l2.6,4.7l0.4,0.4l1,0.8l2.3,1.7l2.5-0.1l1.4,2.4l-3.4,4.2l3.5,3.1l0.4,1.9l4.4,2.5l2.4,41.1l0.1,2.5l0.2,2.5
	l0.1,2.5l0.2,2.6l0.1,2.5l4.6-0.3l31.3-2.5l37-3.6l1.8,3.8l-4.3,6.8l10.5-1.6h0.1v-0.8l0.2-4.5l1.9-2.4l-0.6-2.7l-0.1-0.1l-0.1-0.1
	l0.4-1.3l0.6,0.2l0.3,0.8l-0.1,0.3v0.1v0.8l0.4,0.1l0.8-1v-0.1l0.1-0.3l2.5-1.6l0.4-0.2l0.9-8l-0.2-0.4l-0.3-0.1l-6.9-5.6l1.1-2
	l-1.9-5.5l-3.5-2.7l-6.6-2.9l-4.2-3.4l0.5-7l1.3-6.5l-7,0.4l-2.1-2.2l-1-4.5l-11.1-9.3l-3.1-8.6l0.8-4.3l0,0L528.7,242.4
	L528.7,242.4z"/>
<path id="NE" inkscape:connector-curvature="0" class="st0" d="M447.3,204.7l-3-3l-10.6-3.1l-3.4-0.1l-5.1,1.5l-6.1-3.9l-19.1,0.2
	l-27.9-0.3l-32.9-1.1l-2.9-0.1l-0.1,2.5l-0.4,7.6l-0.9,17.8l-0.5,10.2l-0.1,2.5l2.3,0.1l23.7,0.9l4.7,0.2l-0.4,19l-0.1,1.3l3.7,0.1
	l13.1,0.2h32.6l16.4-0.4l35.8-1.4l3.3-0.2l-0.4-0.4l-2.6-4.7l-2.2-1.6l-2.4-4.7l0.1-0.6V243l-3-12.2l0.6-1.9l-3.3-4.6l-0.2-5.4
	l-3-4.8l-3.1-9.1l-0.7-0.1L447.3,204.7L447.3,204.7z"/>
<path id="OK" inkscape:connector-curvature="0" class="st0" d="M484.5,322.9l-0.2-2.6l-0.1-2.5l-0.2-2.5l-3.7,0.3l-37.6,1.7
	l-52.7,0.8l-22.5-0.3l-4.2-0.1h-1.6l-6.1-0.2l-1.9-0.1l-4.1-0.1l-1.9-0.1l-0.1,2.5l-0.1,2.5l-0.1,2.5l-0.1,2.6h0.6l23.5,0.6
	l24.8,0.3l0.3,33.2l1.7,5.8l3.9,3.7l4.2,0.2l0.9-1.7l5.7,5.2l7.5,0.8l1.4,1.6l2.7-1.3l6.8,3.2v1.8l2.5-0.1l2.6-2.2l4.9,3.1l4.6,1.7
	l3.1-4.3l9.9,4.7l3.7-3l3-1.2l2.4,0.6l9.1-2.6l4.9,2l4.4,2.8l3.8,0.7h0.1l-0.1-4.4l-1.1-26.4l-0.1-4.4l-3.8-19.6l-0.6-2.7
	L484.5,322.9L484.5,322.9z"/>
<path id="SD" inkscape:connector-curvature="0" class="st0" d="M441.9,135.6l-16.4,0.5l-39.5,0.3l-42.8-1.2l-3.8-0.2l-0.1,2.2
	l-0.4,8.8l-0.3,6.7l-0.1,1.4h-0.3l-0.1,2.5l-1,20.4l-0.8,15.1l-0.1,2.6l2.9,0.1l32.9,1.1l27.9,0.3L419,196l6.1,3.9l5.1-1.5l3.4,0.1
	l10.6,3.1l3,3l1.8,0.2v-0.7l-2-3.1l1.4-5.1l-1.7-10.8l2-0.1l-0.2-4.5l-4.9-34.2l-2.5-4.3l3.9-6.4l0.1-0.3L441.9,135.6L441.9,135.6z"
	/>
<path id="LA" inkscape:connector-curvature="0" class="st1" d="M564,469.3l-1.3,0.3l-0.6,0.6L564,469.3L564,469.3z M568.1,469.3
	l-0.7-0.3l-0.2,0.3H568.1z M570.4,468.5h-0.7l-0.4,0.5L570.4,468.5z M569.2,467.8l-0.2-0.3l-0.1,0.3H569.2L569.2,467.8z M577,462.7
	l-0.3,0.2h0.5L577,462.7L577,462.7z M590.6,457l0.6-0.8L590.6,457L590.6,457L590.6,457z M592.5,454.4l-0.2,0.1v0.1L592.5,454.4
	L592.5,454.4z M542.6,463l1.5-1.8l-4-1.1l-1.7,1.5L542.6,463L542.6,463z M582.9,454.5l-0.4-0.4l-0.1,0.2L582.9,454.5L582.9,454.5z
	 M584,452.8l-1-0.3l0.3,1L584,452.8z M592,451.1v-0.3v0.1V451.1L592,451.1z M593.9,449.9L593.9,449.9L593.9,449.9L593.9,449.9
	L593.9,449.9z M593.1,449.7l-0.2-0.1l-0.1,0.3L593.1,449.7L593.1,449.7z M586.3,449.4l0.9-0.3v-0.3L586.3,449.4L586.3,449.4z
	 M586.8,448.9l0.5-0.5l-0.1-0.1L586.8,448.9L586.8,448.9z M583.4,445.3l-0.2,0.2h0.1L583.4,445.3L583.4,445.3z M547.6,391h-0.2
	l-36.6,3.4l-9.2,0.7l-3,0.3l0.1,2.3l1.9,18.7l3.2,4.5l0.1,2.6l3.1,5.4l2.5,8l-0.9,4.5l-0.7,11.1l-1.5,3.6h0.2l0.3,2.5l-1.7,2.3
	l12-1.4l9.4,2.6l6.7,0.9l3.4-2.4l-1.8-2.4l6.2-1.9l-0.2,2.1l3.2-0.8l2.6,4.1l2.2-0.8l5.8,4l-3.6,1.3l8.3,2.4h3.1l1.8-2.2l4-2.1
	l2.8,4.1l1.9-3.7l-0.6-5.8l5.2,2l0.6,1.7l6.2,0.8l3.1,2.5l-0.4,2l4.4-4.1l-1.7-2.1l-7.3-1.8l-2.7-1.6l-0.1-2.9l3,0.4l2.3-4.8l-3-4.2
	l-1.7,4l-3.8-0.7l2.6-4.3l-1.7-0.5l-4.3,3l-6.1,0.4l-1.7-1.4l2.8-5l3.3-0.1l5.6,1.8l4.1,0.4l0,0l-2.2-2.8l-4.3-8.3l1.2-4.7
	l-33.5,3.7l1.3-1.3l-1.4-3.5l2-3l1.2-7.6l7.4-12.6l-3.6-4.4l0.2-3.2l-2.2-5.2L547.6,391L547.6,391z"/>
<path id="TX" inkscape:connector-curvature="0" class="st1" d="M449,536.9l-4.7-17.6v3.3L449,536.9z M447.9,506.1l-3.3,6.2l-0.4,2
	L447.9,506.1L447.9,506.1z M450.5,501.5l3.1-4.1l-2.2,1.4L450.5,501.5z M461.5,491.6l-7.3,3.8l2-0.4L461.5,491.6z M462.5,490.2
	l2-1.7l-0.8,0.2L462.5,490.2z M347.4,327.4l-0.7-0.1l-3.3,91l-19.2-0.9l-30.8-1.7l-12.3-0.9l2.4,4.8l0.1,0.1l10.5,10.5l6,7.1l8,5.9
	l5.6,10.3l2.1,10.8l4.6,3l3.6,4l5.1,1.8l7.5,4.8l3.4,1.3l4.7-4.7l1.5-5l2.4-4.8l7.6-3l2.9,1.5l8.4,0.7l7.7,4.8l5.2,1l-1.5,2.7l3,1.9
	l2.8,3.4l0.6,3.6l1.8,2.4l4.3,10.3l4.3,3.6l3.3,5.4l4.2,4.3l1.8,0.6l1.6,11.1l4.6,2.5l0.2,3.5l1.2-0.3l8,9.7l4,0.9l5,3h7.8l5.6,3.1
	l6.7-1.5l-3-2.8l-2.7-8.2l-1.1-7.1l-1.6-2.3l0.7-4.8l-2-0.2l-2.7-4.5l3.1,3.3l3.6-1.3l1.9-5.1l-3.9-5.2l5.8,0.7l2.7-4.2l-0.4-1.5
	l2.4-3.2l-0.6,2.8l2.7-2.1l-1.1-3.8l3.5,1.8l4.5-2.5l-4.4-4.6l2.7,1.1l5,0.3l6.6-1.5l7.4-5l4.5-3.7l0.7-2.7l2.7-2.8l-1.5-4.7
	l0.3-2.9l4.9-2.1l-0.4,5.1h2.9l-3.2,2.7l12.9-6.8l2.1-0.1l1.4-6.2h0.4l1.5-3.6l0.7-11.1l0.9-4.5l-2.5-8l-3.1-5.4l-0.1-2.6l-3.2-4.5
	l-1.9-18.7l-0.1-2.3l-0.2-2.4l-0.6-8.5l-5.8,0.2l-1.5-1.6l-0.3-0.1h-0.1l-3.8-0.7l-4.4-2.8l-4.9-2L468,380l-2.4-0.6l-3,1.2l-3.7,3
	l-9.9-4.7l-3.1,4.3l-4.6-1.7l-4.9-3.1l-2.6,2.2l-2.5,0.1v-1.8l-6.8-3.2l-2.7,1.3l-1.4-1.6l-7.5-0.8l-5.7-5.2l-0.9,1.7l-4.2-0.2
	l-3.9-3.7l-1.7-5.8l-0.3-33.2l-24.8-0.3l-23.5-0.6L347.4,327.4L347.4,327.4z"/>
<path id="CT" inkscape:connector-curvature="0" class="st0" d="M812,143.3l-14,5.3l-0.2-0.5l-7.9,2.3l-1.7,0.5l0.2,1l3.7,14.3
	l1.2,1.5l-2.5,3.1l1.7,1.7l0,0l5.6-5.4l3-4.2l0.6,1.2l14.2-6.3l0.3-0.3l-0.1-2.3l-0.6-2l-3-8.4l-0.4-1.1L812,143.3L812,143.3z"/>
<path id="NH" inkscape:connector-curvature="0" class="st0" d="M798.9,76l-1.3,1.6l-1.5-0.3l-0.8,6.4v0.1l2.3,8.7l-0.2,1.7l-4.2,5.5
	l1.1,5v6.3l-0.8,5.8l4.4,15.9l0,0l0,0l4-1.3l12.2-4.1l5.5-6l0,0V120l0.3-2.5l-0.7,0.3l-0.1-0.6l-6.1-7.5V109L798.9,76L798.9,76z"/>
<path id="RI" inkscape:connector-curvature="0" class="st0" d="M821.5,152.1l-0.1-2l-0.3,0.8L821.5,152.1L821.5,152.1z M823.4,150.5
	l-1.3-2.4l-0.1,2.5L823.4,150.5L823.4,150.5z M822.9,147.5l0.7,1.7l0.9,1.6l0.6-1.2l-0.9-1.7l-0.3-1.2h-1V147.5z M812.1,143.5
	l0.4,1.1l3,8.4l0.6,2l0.1,2.3l0.2-0.3l4.7-3.7l-0.9-6.6l1.9-0.4l0,0l-4.3-5.1l-4.5,1.7L812.1,143.5L812.1,143.5z"/>
<path id="VT" inkscape:connector-curvature="0" class="st0" d="M798,132.9l-4.4-15.9l0.8-5.8v-6.3l-1.1-5l4.2-5.5l0.2-1.7l-2.3-8.7
	l-1.3,0.5l-5.3,1.9l-5.2,2l-12,4.4l-0.7,0.2l4.4,10.2l1.5,9.6l5.1,8.1l4.9,15.9l0.2-0.1l0.8-0.3l2.2-0.7l1.9-0.7l5.5-1.7L798,132.9
	L798,132.9L798,132.9z"/>
<path id="AL" inkscape:connector-curvature="0" class="st1" d="M593.3,344.8l0.4,0.8l1.4,0.9l0.6,39.8l0.2,21.8l5,29.9l0.4-0.1
	l4.4,0.9l1.2-8.6l1.9,4.9l3.3,3l6.3-3.7l-0.7-0.6l0.2,0.1l-4.4-10l41.9-6.8l2.8-0.5v-0.1l-2.6-5l-0.2-7.1l-2.1-3.9l1.1-7.6l1.7-1.9
	l-7.2-12.8l-13-39.6l-0.1-0.2l-2.9,0.5l-15.5,2.5l-7.8,1l-16.3,2.2L593.3,344.8L593.3,344.8z"/>
<path id="FL" inkscape:connector-curvature="0" class="st1" d="M729.7,535.3h-0.2H729.7L729.7,535.3L729.7,535.3z M728.8,535.2
	L728.8,535.2L728.8,535.2L728.8,535.2z M729,535.1L729,535.1L729,535.1L729,535.1z M715.8,536.5L715.8,536.5L715.8,536.5
	L715.8,536.5z M715.6,536.6L715.6,536.6L715.6,536.6L715.6,536.6z M715.7,536.5L715.7,536.5L715.7,536.5L715.7,536.5z M714.7,536.6
	L714.7,536.6L714.7,536.6L714.7,536.6z M742.3,530.5L742.3,530.5v0.2V530.5z M744.9,529.8v-0.2l-0.2,0.3L744.9,529.8L744.9,529.8z
	 M744,529.7l-0.4-0.4l-0.1,0.1L744,529.7L744,529.7z M743.7,530.4l-1.2-1.5l0.7,1.3L743.7,530.4L743.7,530.4z M752.9,524.7v0.4
	l0.2-0.2L752.9,524.7z M754.2,523.7l0.3-0.5L754.2,523.7L754.2,523.7L754.2,523.7z M754.5,522.8L754.5,522.8L754.5,522.8
	L754.5,522.8z M752.8,522.5L752.8,522.5L752.8,522.5L752.8,522.5z M753.7,521L753.7,521L753.7,521L753.7,521L753.7,521z M751,520.9
	L751,520.9L751,520.9L751,520.9z M754.3,518.7l-0.2,0.1l0.3,0.1L754.3,518.7L754.3,518.7z M754.7,518.7l-0.2-0.2L754.7,518.7
	L754.7,518.7L754.7,518.7z M754,518.5L754,518.5L754,518.5L754,518.5L754,518.5z M757.6,517.8L757.6,517.8l-0.2,0.3L757.6,517.8
	L757.6,517.8z M753.6,518.2h-0.2H753.6L753.6,518.2z M755.6,517h-0.3l-0.1,0.1L755.6,517L755.6,517z M756.4,516.6L756.4,516.6
	L756.4,516.6L756.4,516.6z M748.2,516.9v-0.2V516.9L748.2,516.9z M749.1,516.6h-0.3l0.3,0.6V516.6z M746.8,516.7v-0.6l-0.5,0.1
	L746.8,516.7z M745.4,515.8l0.5,0.5v-0.2L745.4,515.8L745.4,515.8z M759.7,516.4l-1.7,0.8l0.6,0.1L759.7,516.4z M746.1,515.5h-0.6
	v0.2L746.1,515.5z M761.4,510.6l0.1-0.5l0.1-1.3L761.4,510.6L761.4,510.6z M761.5,505.2l-0.4-1l-0.2,0.4L761.5,505.2z M739.1,507.6
	l-0.2,0.3l0.5,0.1L739.1,507.6L739.1,507.6z M737.3,506.7l-0.9,0.3l0.7,0.1L737.3,506.7L737.3,506.7z M735.3,506.9v-0.3l-0.1,0.1
	L735.3,506.9L735.3,506.9z M733.3,506.8l-0.6,0.4l0.8,0.4L733.3,506.8L733.3,506.8z M736,506.9l-0.1-0.3l-0.5-0.1L736,506.9
	L736,506.9z M723.3,497.4l-0.6,0.3l1.2,0.4L723.3,497.4L723.3,497.4z M721,494.3l-0.8-1.2l0.3,0.9L721,494.3L721,494.3z M724,496.3
	l-1.4-3.1l-1-0.3L724,496.3z M720.1,492.4l-0.3-0.8l-0.2-0.5L720.1,492.4L720.1,492.4z M712,481.6l-1.7-1.3l0.7,0.7L712,481.6z
	 M755.7,475.1l-7.1-11.8h-0.4L755.7,475.1L755.7,475.1z M706.7,456.2l-0.3-0.1L706.7,456.2L706.7,456.2L706.7,456.2z M706.1,455.5
	L706.1,455.5v0.2V455.5L706.1,455.5z M705.4,454.5L705.4,454.5L705.4,454.5L705.4,454.5z M705.8,454.1l0.3,0.2v-0.2H705.8z
	 M706.4,453.8l-0.4,0.1h0.1L706.4,453.8L706.4,453.8z M705.7,453.7l-0.3-0.3l0.1,0.1L705.7,453.7L705.7,453.7z M705,452.6h-0.2H705
	L705,452.6L705,452.6z M705.7,451.4h-0.4l-0.1,0.1L705.7,451.4L705.7,451.4z M706.1,451.6l-0.5-0.5l0.2,0.1L706.1,451.6L706.1,451.6
	z M702.4,447.4l-0.2-0.1v0.1H702.4z M698.2,447.4l-0.3-0.4l0.1,0.5L698.2,447.4L698.2,447.4z M662.9,444.2l2.9-2.2l-3.2,2.1
	L662.9,444.2L662.9,444.2z M668.7,439.6l0.3-0.3l-1.2,0.5L668.7,439.6L668.7,439.6z M631.8,433.1l-10.6,3.4l5.8-1.7L631.8,433.1z
	 M658.2,416.6l-2.8,0.5l-41.9,6.8l4.4,10l0.3,0.1l-1.1,4l3.1-1.4l3.4-3l5.8-0.2l6.7-2.4l4.6,0.7l-1.1,1.7l8.3,2.8l7.2,3.5l1.7,3.9
	l5.3-1.2l12.6-10.3l4.7,0.2l19,14.4l3.9-0.8l4.1,5.4l0.8,8.6l-1.3,5.4l0.6,2.7l3.4,6.8l-1.6-5.3l4.4-0.1l0.4,3.9l-2.3,6l8.1,11.1
	l3,0.1l-2.5-3.4l3.1,0.4l1.8-1.2l-0.8,6.2l4.2,3.3l2.8,7.6l3.8,2.3l4.9,1.3l6.7,8.5l3.5,1.8l-4.7,0.3l2.1,2.4l7.7-2.5l3.8-2.1
	l3.5-12.2l-1.7-19l-0.4-1.9l-9.3-15.5l-8-11.3l-4.5-9.2l3.8,3.2l0.8-0.6l1.7,8.1l4.3,6.1l-4.2-8.2l0.2-3.9L732,435.8l-3-4.8l-4-8.1
	l-2.7-6.8l-2.1-2.4l-0.5-3.1l-0.1-0.1l-6.7-0.4l-2.6,2l-1.5,7.5l-1.4-3.5l-45.8,5.7L658.2,416.6L658.2,416.6L658.2,416.6z"/>
<path id="GA" inkscape:connector-curvature="0" class="st0" d="M720.9,396.1l-0.1-2.9l-0.7,2.5L720.9,396.1L720.9,396.1z
	 M721.9,391.6l-0.4-2.2l-0.3,1.4L721.9,391.6z M676.5,330.5l-1.3,0.3l-3.7,0.8l-13.6,2.8l-1.3,0.3l-1.4,0.2l-7.6,1.5l-2,0.4
	l-8.3,1.6l-1.7,0.2l0.1,0.2l13,39.6L656,391l-1.7,1.9l-1.1,7.6l2.1,3.9l0.2,7.1l2.6,5v0.1l-0.1,0.1l3.3,5.1l45.8-5.7l1.4,3.5
	l1.5-7.5l2.6-2l6.7,0.4l0,0l-0.6-10.5l1.3-2.2l-0.7-4.2l1.4-4l2-2.2l-1.5-1.4l3.4-4.2h-0.1l-5.8-5.4l-8-11.4l-4.4-2l-18.7-15.7
	l-4.6-5.8l-8.8-3.7l-0.5-1.9L676.5,330.5L676.5,330.5L676.5,330.5z"/>
<path id="MS" inkscape:connector-curvature="0" class="st1" d="M591.8,442.8l-0.5,0.1v0.1L591.8,442.8L591.8,442.8z M600.8,441.6
	h-1.4H600.8L600.8,441.6L600.8,441.6z M589.5,442.6l-0.4,0.4l0.1,0.1L589.5,442.6L589.5,442.6z M598.7,441.8H595l3.5,0.1
	L598.7,441.8z M558.2,349.3L558.2,349.3l-4.1,6.9l0.4,5.2l-5.5,6.1l1.5,1.7l-3.7,15.5l1.7,3.3l-1,0.7l0.1,2.1v0.7l2.2,5.2l-0.2,3.2
	l3.6,4.4l-7.4,12.6l-1.2,7.6l-2,3l1.4,3.5l-1.3,1.3l33.5-3.7l-1.2,4.7l4.3,8.3l2.2,2.8v-0.1l3.6-4.1l7.6-1.7l7,0.8l1.1-1.4v0.1
	l-5-29.9l-0.2-21.8l-0.6-39.8l-1.4-0.9l-0.4-0.8H593l-4.9,0.7l-8.5,1.2l-19.4,2.4L558.2,349.3L558.2,349.3z"/>
<path id="SC" inkscape:connector-curvature="0" class="st0" d="M676.5,330.5L676.5,330.5l-2.7,5.3l0.5,1.9l8.8,3.7l4.6,5.8
	l18.7,15.7l4.4,2l8,11.4l5.8,5.4l0,0l1-4.5l-1.6-4.3l4.2,3.1l2.3-1.8l-4-3.3l4.9-0.3l7.6-6.4l-0.9-1.7l4.7-3.6l-0.5-1.7l3.4-2.1
	l0.2-5l5.3-9.9l3.6-4.6l0.4-0.2l-21.6-13.7l-8.1,1.6l-11-0.4l-5.4-2.8l-32.2,10.2L676.5,330.5L676.5,330.5z"/>
<path id="IL" inkscape:connector-curvature="0" class="st0" d="M536.4,198.2l-0.2,0.5l3.7,2.3l1.2,2.3l3.9,3.7l-0.1,3.1l-2.1,6.1
	l-4.9,3.5l-4.4,0.9l-0.9,5l1.5,0.7l-1.5,9.9l-3.6,2.2l0.7,3.8l-0.9,0.4l0,0l-0.8,4.3l3.1,8.6l11.1,9.3l1,4.5l2.1,2.2l7-0.4l-1.3,6.5
	l-0.5,7l4.2,3.4l6.6,2.9l3.5,2.7l1.9,5.5l-1.1,2l6.9,5.6l0.3,0.1l-0.6-0.6l1.9-4.6l7.5,2l1.8-2.1l-1.5-4.3l6.1-3.6l-1.7-2.3l1.5-3.3
	l0,0l-0.4-0.1l0.1-8.6l2.1-1.6l3.7-8.6l-0.8-3.8l-2.4-4.6l1.4-5.1l-6.8-47.9l-1-1.1l-2.5-5.7l-2-2.1l-0.9-5.6V193l-13.1,1.8l-7.9,1
	L536.4,198.2L536.4,198.2L536.4,198.2z"/>
<path id="IN" inkscape:connector-curvature="0" class="st0" d="M625.3,200.2l-14.9,2.6l-3.4,0.7l-12,1.9l-2.5,2l-3.8,1.7l-1.5-0.1
	l-1.7-0.9l-0.6-0.6l6.8,47.9l-1.4,5.1l2.4,4.6l0.8,3.8l-3.7,8.6l-2.1,1.6l-0.1,8.6l0.4,0.1l0.4-0.1l1.5-2.7h3.6l4.4-1.5l5.4,2
	l0.6-2.2l3.1-2.3l4.7,0.7l2.5-5l6.9,0.6l-0.1-2.8l6.1-8.1l-1-3.7l4.3-0.1l5.2-4.2l-1.3-4.8l0.2-0.2l-0.2-1.7l-5.8-34.4l-2.6-14.7
	l-0.3-1.6L625.3,200.2L625.3,200.2z"/>
<path id="KY" inkscape:connector-curvature="0" class="st0" d="M568.2,317.2l-0.3-0.8l-0.6-0.2l-0.4,1.3l0.1,0.1l1.1-0.1
	L568.2,317.2L568.2,317.2z M634.6,253.7l-0.2,0.2l1.3,4.8l-5.2,4.2l-4.3,0.1l1,3.7l-6.1,8.1l0.1,2.8l-6.9-0.6l-2.5,5l-4.7-0.7
	l-3.1,2.3l-0.6,2.2l-5.4-2l-4.4,1.5H590l-1.5,2.7l-0.4,0.1v0.3l-1.5,3.3l1.7,2.3l-6.1,3.6l1.5,4.3l-1.8,2.1l-7.5-2l-1.9,4.6l0.6,0.6
	l0.2,0.4l-0.9,8l-0.4,0.2l-2.5,1.6l-0.1,0.3l2.8-0.4l19.6-2.6l-1-3.9l3.3-0.1l39.5-5.2l27.8-4.7l0.4-0.3l0.7-0.8l7.3-3.9l5.6-7.4
	l0.8-2.5l3.7-2.9l4.7-5.9l0.7-1L685,276h-2.4l-3.1-1.7l-5.5-6.7l-1.9-6.8v-0.2l-0.2-0.2l-4.1-2.3L666,255l-3.7,3.6l-2.3,0.6
	l-2.9-1.2l-2.5,1.9l-5.2-2.3l-1.4,0.6l-5-4.3l-2.5-1.3l-4.8,0.6L634.6,253.7L634.6,253.7z"/>
<path id="NC" inkscape:connector-curvature="0" class="st0" d="M765.2,332.2l-1.1,1.1l0.2,0.2L765.2,332.2L765.2,332.2z M766,326.6
	l-0.5,0.8l0.2,0.8L766,326.6L766,326.6z M771.8,317.6l-1.5,1l-0.8,1.2L771.8,317.6L771.8,317.6z M784.3,311.5l-0.6-0.4l-1.3-0.1
	L784.3,311.5L784.3,311.5z M781.7,310.9h-0.9l-1.5,0.8L781.7,310.9z M784.7,311.9l2.8-7l-1.9,2.9L784.7,311.9L784.7,311.9z
	 M788.9,302.7l1.3-1.8h-0.7L788.9,302.7z M797,295.2l-2.1-10.8l1.8,5.6L797,295.2L797,295.2z M785.2,270.6l-0.2,0.1l-0.3,0.1l0,0
	h0.1l5.3,9l4.2,4.2L785.2,270.6L785.2,270.6L785.2,270.6z M783.5,271.2l-0.8,0.2l0,0l0.2,0.1h1.7l-0.2-0.6l0,0L784,271h-0.3l0,0v0.2
	H783.5L783.5,271.2L783.5,271.2L783.5,271.2z M693.7,293.3l-0.5,1.5l0.1,4.2l-1.1-0.1l-2.5,5.1l-2.8,0.3l-5.2,5.1l-2.3-0.9l-3,4.5
	l-8,7.2l-3.9,1l-4.1,3.8l-0.2,2.5l-3.6,1.9l0.1,4.3v1l1.3-0.3l13.6-2.8l3.7-0.8l1.3-0.3h0.3l32.2-10.2l5.4,2.8l11,0.4l8.1-1.6
	l21.6,13.7l0.4-0.3l10-4.1l0.1-5.3l3.6-6.5l3.9-3.7l8.1-5.3l1.1-1.9l2.1,1l1-6.4l-1.2,2.2l-4.1,1.4l-3.9,0.1l4.8-3.5l-1.5-1.6
	l1.7-3.5l-9.1-1.5l-0.4-0.5l7.8-1.5l2.5,1.3l3.2-0.3l2.6-1.9l1.9-3.8l1.7-0.5l-0.3-5.3l-2.2-2.1l-2.2,2l0.5,5.1l-1.7-6.3l-1.3-0.3
	l-9.6,4l4.3-4.2l0.2-1.7l4.5-1.1l1.3-3.3l3,1.7l-3.2-4.8l-2.2-1.9l0,0l-38.8,11.1l-24.8,6.3l-25,4.7L693.7,293.3L693.7,293.3z"/>
<path id="OH" inkscape:connector-curvature="0" class="st0" d="M693.2,206.6l-2.4-10.5l-0.5-2.1l-2.7-11.9l-3.5,2.2l-7.5,5.7
	l-4.9,5.9l-3.8,0.6l-7,4l-3.9-2.3l-11.7-1.4l0,0l-6.2,1.6l-6.1,1.5l-6.4,1.4l-1,0.3l0.3,1.6l2.6,14.7l5.8,34.4l0.2,1.7l0.8-0.8
	l4.8-0.6l2.5,1.3l5,4.3l1.4-0.6l5.2,2.3l2.5-1.9l2.9,1.2l2.3-0.6l3.7-3.6l1.8,3.1l4.1,2.3l0.2,0.2l0,0l4.2-2l1.5-3.2l-1.2-3.3l3.3-5
	l2.4-0.4l-0.3-4.3l4-5.4l0.7,0.8l3.6-2.7l3.1-4.7l0.5-21.3l0.2-0.1L693.2,206.6L693.2,206.6z"/>
<path id="TN" inkscape:connector-curvature="0" class="st0" d="M661.3,300.5l-27.8,4.7l-39.5,5.2l-3.3,0.1l1,3.9l-19.6,2.6l-2.8,0.4
	v0.1l-0.8,1l-0.4-0.1v-0.8v-0.1l-1.1,0.1l0.1,0.1l0.6,2.7l-1.9,2.4l-0.2,4.5v0.8v0.1l-2.9,5.6l0.6,4l-2.7,4.3l1,3.9l-3.5,3.2
	l0.2,0.2l2.1-0.2l19.4-2.4l8.5-1.2l4.9-0.7h0.2l-0.1-0.2l16.3-2.2l7.8-1l15.5-2.5l2.9-0.5l1.7-0.2l8.3-1.6l2-0.4l7.6-1.5l1.4-0.2v-1
	l-0.1-4.3l3.6-1.9l0.2-2.5l4.1-3.8l3.9-1l8-7.2l3-4.5l2.3,0.9l5.2-5.1l2.8-0.3l2.5-5.1l1.1,0.1l-0.1-4.2l0.5-1.5l-1.6,0.3l-5.5,1.6
	l-6.6,1.4l-16.6,3.4l-1.7,0.3L661.3,300.5L661.3,300.5z"/>
<path id="VA" inkscape:connector-curvature="0" class="st0" d="M783.8,271h0.3l0.3-0.1l0,0l-0.2-0.5L783.8,271L783.8,271L783.8,271z
	 M780.5,260.1v0.5l0.5-0.3L780.5,260.1z M782.2,256.7l-0.1-0.8l0,0L782.2,256.7z M781.6,257.9l-0.2,1.3l-0.3,0.5L781.6,257.9
	L781.6,257.9z M782.5,255.4l0.1-0.6L782.5,255.4L782.5,255.4L782.5,255.4z M783.1,252.7l0.3-0.7l-0.5,1.7L783.1,252.7z M783.2,251.3
	l0.4-2.1l-0.5,0.5L783.2,251.3L783.2,251.3z M784.9,241.7l0.2-0.9L785,241L784.9,241.7L784.9,241.7z M784.5,239.4l-1.3,0.5l-1.9,0.9
	l-0.7,0.9l0.3,0.1l-2.3,14.5l0.9,2.3l1.4-6l2.5-7.9L784.5,239.4L784.5,239.4L784.5,239.4z M786.5,238.7l-0.3,0.1l-0.1,0.4l-0.5,3
	l0.4-1.1L786.5,238.7L786.5,238.7z M685,275.8l-0.7,1l-4.7,5.9l-3.7,2.9l-0.8,2.5l-5.6,7.4l-7.3,3.9l-0.7,0.8l1.7-0.3l16.6-3.4
	l6.6-1.4l5.5-1.6l1.6-0.3l0.1,0.2l25-4.7l24.8-6.3l38.8-11.1l0,0l-0.3-0.5l-0.1-0.3l0.7,0.7l0,0l0,0l0.8-0.2l-0.1-0.1l-0.7-3.3
	l0.5,0.1l1.6,2.9l0,0l0,0l0.3-0.1l0.2-0.1l-0.4-0.8l-4-6.1l-5,0.9l-2.2,1.8l-2.1-1.9l-7.3-2.4l-5-0.2l9.8-0.9l5.4,3.7l1.6-2.4
	l-4.4-5.5l3.1,0.2l-1.7-4.5l-3.9,0.2l-9.2-7.5h-1.2l13,6.4l-0.9-4.5l0.9-1.5l-6.6-2.5l-5.7-0.4l-2.8-2.5l-2.3,1.5l-0.9-6.7l1,0.2
	l-0.2-5.4l-0.2-0.2l-0.2,0.1l-0.2-0.1L753,229l-0.3-0.3l-3.1-1.4l-3.2-2.3l-4.5-1.2l-0.3-0.1v0.1l-0.6,4.1l-9-3.9l0.2,5.6l-5,9.4
	l-3,3.3l-1.9,5.7l-5.9-2l-2.9,13.2l-2.3,4.5l-0.4,5.8l-1.7,2.8l-6.5,1.9l-5.3,4.2l-2.5,0.4l-2.4,2.1l-6.1-2.2l-1.1-3L685,275.8
	L685,275.8z"/>
<path id="WI" inkscape:connector-curvature="0" class="st0" d="M580.8,134.8l-2.4,3l-1.5,4.4l0.7,2.4L580.8,134.8z M525.1,112l1.5-2
	l-1.1,1L525.1,112z M527.3,108.8l-0.5-0.6l-1.1,0.7L527.3,108.8L527.3,108.8z M506.2,114.2l-2.2,2.5l1.1,11.6l-6.2,5.6l-1.2,5.4
	l3.4,3.1l-1,13.4l3.6,2.7l2.3,0.2l7.4,4.5l4.7,4.9l5.9,3l1.4,7.5v0.5l0,0l2.8,3.4l-0.8,2.6l1,5.7l2.9,4l5.3,2.8l-0.1,0.5l0,0
	l21.2-2.4l7.9-1l13.1-1.8l-0.4-1.5v-4.6l-2.6-4.9l-0.7-6.1l1.3-6.8l-0.7-5.2l2.3-6.5l-0.9-1.1l0.2-6l1.3-4.6L577,144l-2.8,1
	l-1.6,4.1l-3.7,2.1l1.2-5.1l3.3-4.4l0.2-1.9l0.1-0.1L569,135v-6.6l-5.2-4.3l-7.2-0.5l-7.4-1.9l-15.9-4.9l-3.1-1.7l-0.3,0.3l-5-0.7
	l-1.7,1l0.7-7.1l-8,4.1L506.2,114.2L506.2,114.2L506.2,114.2z M525.2,109.1l-0.2-0.7l-0.7,0.3L525.2,109.1z M521.7,108.4l0.3-0.6
	l-0.2-0.2L521.7,108.4L521.7,108.4z M528.8,106.8l-0.3-1.4l-0.3,1.7L528.8,106.8z"/>
<path id="WV" inkscape:connector-curvature="0" class="st0" d="M711.7,223.7l-13.8,3.4l-4.3-18.4l0,0l-0.2,0.1L693,230l-3.1,4.7
	l-3.6,2.7l-0.7-0.8l-4,5.4l0.3,4.3l-2.4,0.4l-3.3,5l1.2,3.3l-1.5,3.2l-4.2,2l0,0v0.2l1.9,6.8l5.5,6.7l3.1,1.7h2.4l0.3,0.1l0.2,0.1
	l1.1,3l6.1,2.2l2.4-2.1l2.5-0.4l5.3-4.2l6.5-1.9l1.7-2.8l0.4-5.8l2.3-4.5l2.9-13.2l5.9,2l1.9-5.7l3-3.3l5-9.4l-0.2-5.6l9,3.9
	l0.6-4.1v-0.1l0,0l-2.8-4.9l-5.8-0.7l-3.4,2.6v1.9l-2.9,0.7l-4.3,3l-2.2,0.5l-4.5,6.3l-2.2-10.2L711.7,223.7L711.7,223.7z"/>
<path id="DE" inkscape:connector-curvature="0" class="st0" d="M768.8,207.7l0.4,1.5l8.1,23l9.2-2.7l-0.1-0.2h0.2l0.3,0.1l0,0
	l0.2-0.1l-0.2-0.4l-2.3-6.2l-11.4-10.8l0.5-7.5l0,0h-2.3l-1.7,1.4L768.8,207.7L768.8,207.7L768.8,207.7z"/>
<path id="DC" inkscape:connector-curvature="0" class="st0" d="M753.2,229.1l0.5,0.4l0.2,0.1l0.2-0.1l0.2,0.1l0.7,0.4l0.2,0.3v0.7
	l0.2,0.4l1.3-2.3l-1.4-0.8l-1.7,0.1L753.2,229.1L753.2,229.1z"/>
<path id="MD" inkscape:connector-curvature="0" class="st0" d="M786.6,238.3l0.7-5.2l-0.6,3.9l-0.4,1.7l-0.1,0.2l0.3-0.1
	L786.6,238.3L786.6,238.3z M787.1,229.2l-0.2,0.1l0.2,0.6v1.2V229.2L787.1,229.2L787.1,229.2z M713.7,223.2l2.2,10.2l4.5-6.3
	l2.2-0.5l4.3-3l2.9-0.7V221l3.4-2.6l5.8,0.7l2.8,4.9l0,0l0.3,0.1l4.5,1.2l3.2,2.3l3.1,1.4l0.3,0.3l0.4-0.8l1.7-0.1l1.4,0.8l-1.3,2.3
	v0.1l-1.8,5.6l6,3.9l6,0.3l4,1.8l-1.7-4.7l-5.1-1.7l-1.3-4l3.2,4.3l2.6,0.4l-2.3-2.3l-1.8-6.9l0.5-4l-2-4.4l2.1-1.7l1.6-5.6
	l-0.6,8.3l1.7,2.8l1.6-3.3l0.9,5.4l-1.7,4l4.8,1.7l-4.1,1.4l2.1,4l3.5,1.2l1.9-3.4l-0.2,4.8l3.3-0.1l2.1,2.4h0.1l0.7-0.9l1.9-0.9
	l1.3-0.5l-0.1-0.2l2.5-7.5v-0.3l-0.5-1.9v-0.1l-9.2,2.7l-8.1-23l-0.4-1.5l-1.7,0.5l-6.9,2.1l-38,10.6l-6.9,1.8L713.7,223.2
	L713.7,223.2z"/>
<path id="NJ" inkscape:connector-curvature="0" class="st0" d="M791.8,207.3l-0.5-1.2v1.2H791.8z M792.8,203.7l0.3-2.9l-0.6,2.5
	L792.8,203.7L792.8,203.7z M788.8,173.9l-10.2-2.5l-1.7-0.5l-1.7-0.4l0,0l-4.1,9l1.7,2.1l-0.1,6.5l1.8,0.3l3.8,9.9l-0.2,0.3l-4.8,7
	l0.5,5.3l11.5,3.9l0.1,4.5l2.6-3.7l0.4-5.3l2.7-1.8l-1.1-4l2-4.8v-10.4l-0.7-3.4l-4.6,0.1l1.2-4.7L788.8,173.9L788.8,173.9
	L788.8,173.9z"/>
<path id="NY" inkscape:connector-curvature="0" class="st0" d="M788.5,181.8l-1.5,2l-0.4,0.6L788.5,181.8z M801.9,177l4.9-4.3v-0.2
	L801.9,177L801.9,177z M789.2,180v-3.3l-0.3,1.7L789.2,180z M811.7,164.5l-1.2-0.3l-0.2,0.9L811.7,164.5z M814.3,162.8l-0.1,1
	l0.2-0.6L814.3,162.8L814.3,162.8z M811.6,162.9l-6.5,6l-10,4.3l-2.6,2.2l-0.2,2.1l-2.7,2.2l0.4,2.9l4.2-1.7l6.1-5l6.8-3.6l10.3-9.7
	l-7.3,5.5l-2.3,1L811.6,162.9L811.6,162.9z M814.6,158.8l0.4-0.6l-1.2,1.4L814.6,158.8z M705.5,155.2L704,155l1.2,1.6L705.5,155.2
	L705.5,155.2z M737.7,125.5l0.2-1.1l-0.8,1L737.7,125.5L737.7,125.5z M738.2,118.5l-0.4,0.2l-0.5,1.1L738.2,118.5L738.2,118.5z
	 M697.2,173.6l0.7,2.9l5.1,1.3l29.5-8.1l29.7-8.9l5.4,4.2l1.1,2.4l6.3,2.7l0.2,0.4l1.7,0.4l1.7,0.5l10.2,2.5l-0.2-0.5l0.9,4l1.9-0.5
	l1.1-4.4v-0.1l-1.7-1.7l2.5-3.1l-1.2-1.5l-3.7-14.3l-0.2-1l-0.5-0.3l-0.3-4.3l-0.3-4.7l-0.3-5v-0.3l-0.2,0.1l-4.9-15.9l-5.1-8.1
	l-1.5-9.6l-4.4-10.2l-0.6,0.3L750,99.9l-4.1,4.4l-4.6,8.7l0.2,1.9l-6,9.1l3.7,1.3l1.1,6.9l-4.3,5.6l-12.8,7.8l-2.4-1l-9.5,1.4
	l-8.8,5.3l0.5,2.8l3.1,2.7l-1.7,8.5L697.2,173.6L697.2,173.6L697.2,173.6z"/>
<path id="PA" inkscape:connector-curvature="0" class="st0" d="M775,170.1l-6.3-2.7l-1.1-2.4l-5.4-4.2l-29.7,8.9l-29.5,8.1l-5.1-1.3
	l-0.7-2.9l-1.7,1.3l-2.6,1.8l-4.8,4.9l-0.6,0.5l2.7,11.9l0.5,2.1l2.4,10.5l0.5,2l0,0l4.3,18.4l13.8-3.4l1.9-0.5l1.7-0.5l6.9-1.8
	l38-10.6l6.9-2.1l1.7-0.5l0,0l0.8-1.9l1.7-1.4h2.3l0.3-0.9l3.8-4.3l0.4-0.7l0.3-0.2l-3.8-9.9l-1.8-0.3l0.1-6.5l-1.7-2.1l4.1-9l0,0
	L775,170.1L775,170.1z"/>
<path id="ME" inkscape:connector-curvature="0" class="st0" d="M821.8,118.4L821.8,118.4L821.8,118.4L821.8,118.4L821.8,118.4z
	 M829,97.7l-0.8-1.2v0.6L829,97.7z M827.6,96.7v-1l-0.1-0.6L827.6,96.7z M831.1,92.6l-0.2-0.1l0.1,0.3L831.1,92.6L831.1,92.6z
	 M840.8,87.7l-0.2-1.5l-0.4,0.7L840.8,87.7z M838.4,88.3l0.1-1.1l-1.2,0.2L838.4,88.3L838.4,88.3z M842,85.1h-0.4v0.2L842,85.1z
	 M837.1,86.6l-0.9-0.2l-0.1,0.9L837.1,86.6L837.1,86.6z M842.1,83.6l0.9,0.7l-0.3-0.8L842.1,83.6z M839.5,83.7l-0.9,1.7l1.2-0.6
	L839.5,83.7L839.5,83.7z M835.3,83.7l-0.4,0.6l0.3,0.9L835.3,83.7L835.3,83.7z M841,80.5l-0.1-0.8l-0.3,0.5L841,80.5L841,80.5z
	 M840.5,80.9l-0.9-0.8v0.7L840.5,80.9z M835.1,83.2l-0.2-1.1l-0.4,0.9L835.1,83.2z M844.3,79.8l-1.5,2.1l-0.1-1.6L844.3,79.8z
	 M851.4,73.3l-0.7-1l-0.4,0.2L851.4,73.3z M854,68.9l-0.6-0.3l-0.1,0.3H854L854,68.9z M855.3,61.3h-0.9l1,0.3L855.3,61.3L855.3,61.3
	z M856.7,62.3l-0.3-1.7l-0.8-0.1C855.7,60.5,856.7,62.3,856.7,62.3z M855.2,60.7l-0.2-1.8l-0.7,1.3L855.2,60.7L855.2,60.7z
	 M798.9,76l14.1,33l0.2,0.7l6.1,7.5V117l1-0.3l0.2-5.5l1.6-1.9l1-5.1l-0.9-0.9l1.7-5l5.6-2.6l3.7-4.5l1.4-7.8l5.9-0.4l-0.8-4
	l7.4-2.8l0.5-4.4l1.7,0.4l4.9-4l2.1-5.1l-5-5l-5.2-1.1l-1.9-4v-2.3l-3.2,1l-3.6-1.3v-4l-9.7-21l-7.1-3.7l-7.9,6.6l-2.1-0.4l-1.8-3.4
	l-2.5,1l-3.6,17.9l1.3,5.8l1.1,11.8l-2.8,9.1l1.9,1.5l-2.3,4.5l-2.5-0.4L798.9,76L798.9,76z"/>
<path id="MI" inkscape:connector-curvature="0" class="st0" d="M595,138.2l-0.5-0.8l-0.1,1L595,138.2z M596.5,136.5l-1.2-1.6
	l-0.2,0.7L596.5,136.5z M597.5,129.5l-1-0.9v0.2L597.5,129.5z M595.1,205.5l12-1.9l3.4-0.7l14.9-2.6l0.3,1.3l1-0.3l6.4-1.4l6.1-1.5
	l6.2-1.6l-0.1-0.3l3.2-6.3l-0.3-5.2l3.6-9l2.8,1.7l1.1-2l-0.3-7.8l-2.6-4.9l-3.9-10.3l-3.4-3.8l-1.7-0.5l-6.3,4.4l0.7,0.9l-3.3,6.2
	l-3.2-0.6l-1-6.5l1.4-0.5l2.8-6.5l0.3-11.5l-4.4-9.7L621,123l-1-1.5l-9-2.6l-4.1,5l0.4,4.4l-3.1,3.9l0.7,6l-3,2.1v-7.6l-2.7,5.7
	l-3.2,5l-2.1,1.7l1.1,5.3l-1.4,5.5l0.8,6.9l-1,3.4l7,13.4l0.9,5.1l-0.9,9.5l-4.7,10.7L595.1,205.5L595.1,205.5z M615.8,118l-2.5,0.2
	l1.6,1.2L615.8,118L615.8,118z M601.1,120.5h-0.8l0.9,0.4L601.1,120.5z M618.1,108.2l-1-1.6l-0.4,0.1L618.1,108.2L618.1,108.2z
	 M530.1,115.3l3.1,1.7l15.9,4.9l7.4,1.9l7.2,0.5l5.2,4.3v6.6l4.7,4.7v-0.1l3.8-11l4.6-3.2l3.5-3.9l0.6,3.5l3.6-5.5l8.6-3.3l0.7-1.4
	l8.7,1.1l3.4,1.7l1.7-4.3l1.6,1l6.8-1.1l-1.7-2.7l-3-1.7l0.6-6.3l-5.9,3.3l-5.4-0.7l-1.7-4.2l0.6-1.4l-7.4,3.5l-4.8,0.3l-8.5,5.2
	l-1,1.9l-5.2-1.3l-3.3,1.5l-6.6-5.7l-14.7-4.5l-0.3-1.7l-9.4,9l-5.3,1.4l-7.6,5.7L530.1,115.3L530.1,115.3z M564.5,93.3l-11.4,5.6
	l3.8,3.7l1.5-3.7l3.9-4.8L564.5,93.3L564.5,93.3z M551.8,80l-7.8,5.3l-0.4,2.6l6.1-4.5L551.8,80z"/>
<path id="AK" inkscape:connector-curvature="0" class="st0" d="M34,548.8l0.1-0.2l-0.2-0.1L34,548.8L34,548.8z M31.6,547.9l-3.4,3
	l2.4-0.2l2.8-2.2L31.6,547.9L31.6,547.9z M37.7,549l-0.7-0.2l0.5,0.4L37.7,549L37.7,549z M39.1,549.1l-1.1-0.3l-0.2,0.1L39.1,549.1z
	 M35.4,547.7h-1.1l1.8,0.5L35.4,547.7z M39.9,548.7l-0.1-0.2l-0.4,0.1L39.9,548.7L39.9,548.7z M36.9,547.5l-0.4-0.2v1.1L36.9,547.5z
	 M49.4,549.9L49.4,549.9l-0.3-0.1L49.4,549.9L49.4,549.9z M49.6,549.8L49.6,549.8l-0.2-0.2L49.6,549.8L49.6,549.8z M47.9,549.3
	l0.2,0.4v-0.1L47.9,549.3L47.9,549.3z M48.8,549.3l-0.9-0.3l1.1,0.8L48.8,549.3z M50.1,548.3L50.1,548.3L50.1,548.3L50.1,548.3z
	 M61.6,549.7l-0.2-0.4h-0.1L61.6,549.7L61.6,549.7z M166,543.2l-0.2-0.2L166,543.2L166,543.2L166,543.2z M48.4,546.3L48.4,546.3
	L48.4,546.3L48.4,546.3z M168.9,541.5l0.3,0.4h0.2L168.9,541.5z M62.8,548.8L62.8,548.8l-0.1,0.4L62.8,548.8L62.8,548.8z M50.7,547
	l0.2-0.8h-0.1L50.7,547L50.7,547z M174.5,539.3l-0.9,0.5l0.8,0.4L174.5,539.3L174.5,539.3z M52.5,546.5l-0.1-0.2L52.5,546.5
	L52.5,546.5z M45.2,544.4l-2.4,0.5l-2.1,2.8L45.2,544.4L45.2,544.4z M62.6,548.1l-0.6,0.5l0.6-0.1V548.1L62.6,548.1z M174.5,538.8
	l-0.2-0.4l-0.1,0.2L174.5,538.8L174.5,538.8z M53.3,545.6l-0.7-0.1l0.7,0.7V545.6L53.3,545.6z M168.1,540l-0.2,0.2l0.2,0.7V540z
	 M54.8,545.5l-0.3,0.1l0.4,0.3L54.8,545.5L54.8,545.5z M62,547.5h-0.3l-0.2-0.2L62,547.5z M54,545.5l-0.5-0.3l0.2,0.3H54z
	 M60.5,546.5l-0.9,0.3l-0.6,1.6L60.5,546.5L60.5,546.5z M165.9,539.8v0.7l0.4-0.5L165.9,539.8L165.9,539.8z M49.1,543.4l0.8-0.2
	h-0.1L49.1,543.4L49.1,543.4z M48.1,542.9l-0.2-0.2v0.1L48.1,542.9L48.1,542.9z M165.9,539.1l-0.2-0.1l-0.1,0.3L165.9,539.1
	L165.9,539.1z M59.5,544.9l-0.2-0.1l-0.2,0.3L59.5,544.9L59.5,544.9z M165,539.3l0.1-0.5l-0.2-0.1L165,539.3L165,539.3z
	 M164.2,538.8l-0.3,0.4l0.5,0.1L164.2,538.8L164.2,538.8z M63.5,543.5l-0.2-0.2h-0.1L63.5,543.5L63.5,543.5z M163.9,537l0.8,0.3
	l0.3-0.4L163.9,537L163.9,537z M165.1,536.4l-0.3,0.2l0.5,0.3L165.1,536.4z M162.8,536.9l-0.2-0.4l-0.2,0.2L162.8,536.9L162.8,536.9
	z M172.5,533.3l-1.3,3.6l1.3-0.8V533.3z M57.5,540.8L57.5,540.8L57.5,540.8L57.5,540.8z M164,534.7l-0.9,0.9l0.2,1L164,534.7
	L164,534.7z M73.6,542.5v-0.4l-0.1,0.2L73.6,542.5z M162.9,533.7l2.8,4.3l6.3,4l-1.5-3.4l-6-5.1L162.9,533.7L162.9,533.7z
	 M69.8,540.9l-0.1-0.3l-0.2,0.1L69.8,540.9L69.8,540.9z M166.2,532.1l-0.4,1.5l0.7-0.5L166.2,532.1L166.2,532.1z M168.3,532.1
	l-0.1,1l0.9,0.3L168.3,532.1L168.3,532.1z M72.9,539.7l-0.5-0.1l-0.5,0.2L72.9,539.7L72.9,539.7z M82.9,540.4l-0.4,0.7l0.2-0.6
	L82.9,540.4L82.9,540.4z M84.3,540.5l-0.9,0.1l0.5,0.6L84.3,540.5L84.3,540.5z M25.5,528.1l1,0.5l-0.2-0.2L25.5,528.1L25.5,528.1z
	 M64,537.7L64,537.7L64,537.7L64,537.7z M64.3,537.6L64.3,537.6L64.3,537.6L64.3,537.6z M164.7,530.1l0.5,1.8l1-0.6L164.7,530.1
	L164.7,530.1z M66.9,536.5L66.9,536.5L66.9,536.5L66.9,536.5z M160.5,530.9l0.5,4.5l1-1L160.5,530.9z M161,529.5l2.2,3.1l-0.3-2
	L161,529.5z M154.1,530.2l-0.6,1.8l0.8-1.3L154.1,530.2L154.1,530.2z M76.5,535L76.5,535L76.5,535L76.5,535z M85.7,535.2l-0.2-0.3
	L85.7,535.2L85.7,535.2L85.7,535.2z M154.3,528.8l3.9,6.4l-0.6-4.4L154.3,528.8L154.3,528.8z M91.1,532.2l-0.3,0.3l0.5,0.2
	L91.1,532.2L91.1,532.2z M89.8,532.4l0.1-0.3h-0.4L89.8,532.4L89.8,532.4z M88.9,532.4l-2.5,1.7l-3.1,4.1l1.6,1.7l7.2-5.3
	L88.9,532.4z M150.1,526.1l-0.7-0.4v0.6L150.1,526.1L150.1,526.1z M88.3,531.2l0.1,0.4l0.7,0.4L88.3,531.2L88.3,531.2z M152,524.2
	l-1.9,1l1.8,0.6L152,524.2L152,524.2z M150.7,524.2l-0.2-0.2l-0.1,0.2H150.7L150.7,524.2z M156.6,522.7l-0.8-0.3l-0.2,0.6
	L156.6,522.7z M152.5,523.3l-0.7-0.1v0.2L152.5,523.3L152.5,523.3z M154.6,522.6l4,5.8l-1.1-5.3L154.6,522.6L154.6,522.6z
	 M90.5,528.9l-2.3,1.7l1.1,1.2l3.1-2.3L90.5,528.9L90.5,528.9z M64.1,525.2L64.1,525.2L64.1,525.2L64.1,525.2z M63.1,524.7l-0.1-0.5
	v0.2L63.1,524.7z M92.9,526l-0.2,0.1v0.1L92.9,526L92.9,526z M91.9,525.8L91.9,525.8l-0.3,0.3L91.9,525.8L91.9,525.8z M94.2,525
	l-0.3-0.2v0.1L94.2,525L94.2,525z M95,524.9l-0.3-0.2v0.1L95,524.9L95,524.9z M93.7,524.6h-0.4v0.1L93.7,524.6z M113,522.7l0.1-0.3
	L113,522.7L113,522.7L113,522.7z M119,519.6l1.2-1.5l-0.4,0.3L119,519.6z M107.1,519.4l0.4-0.3l0.1-0.4L107.1,519.4L107.1,519.4z
	 M107.1,518.3l-0.4,0.3l0.7-0.2L107.1,518.3z M91.2,518.3l-0.1-0.4H91L91.2,518.3L91.2,518.3z M106.7,518.2l-0.4,0.4l-0.2,0.4
	L106.7,518.2z M117.4,517L117.4,517h0.2H117.4L117.4,517z M117.9,517l-0.2-0.1v0.1H117.9z M116.7,516.9L116.7,516.9L116.7,516.9
	L116.7,516.9z M108.8,517.5l0.4-0.4L108.8,517.5L108.8,517.5L108.8,517.5z M114.7,516.4L114.7,516.4L114.7,516.4L114.7,516.4z
	 M109.9,516.6l-2.3,3.8l3-3.5L109.9,516.6z M106.9,517.1l-0.3-0.4l-0.1,0.2L106.9,517.1L106.9,517.1z M114.3,516.3l-0.2-0.1
	L114.3,516.3L114.3,516.3L114.3,516.3z M116.8,516.5v-0.7l-0.2,0.3L116.8,516.5z M45.6,509l-4.7-0.2l3.2,3.4L45.6,509z M111.9,515.9
	l0.2,0.7l0.5-0.8L111.9,515.9L111.9,515.9z M108,515.8l-0.3,2.1l0.5-1.4L108,515.8z M23.7,499.7l0.1-0.4l0,0L23.7,499.7z M107,514.4
	l0.1,0.3l0.2-0.1L107,514.4L107,514.4z M106.5,514.8l-0.2-0.6l-0.3,0.2L106.5,514.8z M111.1,513.6v-0.4l-0.3,0.2L111.1,513.6
	L111.1,513.6z M106.7,513.1v1l0.3-0.7L106.7,513.1z M99.4,511.9v-0.3l0,0V511.9z M48.7,499.9l0.2-0.6l-0.1,0.1L48.7,499.9
	L48.7,499.9z M49,498.9L49,498.9h-0.2H49L49,498.9z M53.3,496.6L53.3,496.6L53.3,496.6L53.3,496.6z M53.3,496.2l-0.1-0.2l0,0
	L53.3,496.2z M55,493.6L55,493.6L55,493.6L55,493.6z M55.6,493.8l-0.4-0.2v0.1L55.6,493.8L55.6,493.8z M55,493.5v-0.2l-0.2,0.2H55z
	 M39.5,488.9l-0.2-0.5l-0.1-0.3L39.5,488.9L39.5,488.9z M40.9,487.1L40.9,487.1l0.2,0.1L40.9,487.1L40.9,487.1z M38.3,486.7l-0.8-1
	l0.6,0.8L38.3,486.7L38.3,486.7z M36.8,485.1h-0.2H36.8L36.8,485.1L36.8,485.1z M36.9,484L36.9,484L36.9,484L36.9,484z M36.8,483.9
	L36.8,483.9L37,484L36.8,483.9z M62.5,491.6l-1.1,0.1L62,492L62.5,491.6L62.5,491.6z M35.7,482.2l-0.8,2.9l2.4,0.4l3.2,3.3l1.9-0.9
	L35.7,482.2z M52.7,483.4v-0.2V483.4L52.7,483.4L52.7,483.4z M47.8,473.1l-0.2-0.1L47.8,473.1L47.8,473.1L47.8,473.1z M50.6,474
	l0.3-0.1h-0.1L50.6,474L50.6,474z M52.6,473.5h0.3l0.9-0.4L52.6,473.5L52.6,473.5z M56.1,472.4l0.2-0.2L56.1,472.4L56.1,472.4
	L56.1,472.4z M56.6,472.3l0.6-0.3l-0.5,0.1L56.6,472.3L56.6,472.3z M58,471.7l-0.5,0.1v0.1L58,471.7L58,471.7z M58.6,471.6
	L58.6,471.6L58.6,471.6L58.6,471.6z M120.3,454.1l-0.4-0.3l-0.7-0.3L120.3,454.1L120.3,454.1z M69.5,452l0.9-1.2l-0.5,0.4L69.5,452
	L69.5,452z M70.6,450.6L71,450l-0.2,0.2L70.6,450.6L70.6,450.6z M71.2,449.9l0.7-0.6l-0.4,0.2L71.2,449.9L71.2,449.9z M101.8,450.1
	l0.5,0.5h0.3L101.8,450.1z M86.2,443.7l-4,3.3l-2.4-0.7l-5.6,3.2l-1.1-0.7l-6.4,7.2l-6.5,1.5l0.6,3.5l2.9,4l5.4,5.2l-0.9,2l4.1,1.7
	l-2.1,0.4l-2.6-2l1.4,3l-1.7,1.1l-5.5-5l-4.4,0.8l-7.5,2.8l3.4,3.8l-0.5,2.3l2.2,2.7l7.4,2.9l5.3-2.7l0.9,2l-1.5,6.1h-4.5l-5.2,2.3
	l-0.3-1.7l-2.7,1.1l-1.3,2.8l-4.5,3.4v5l1.7,0.8L49,510l5.8,5l3.7-1.6l-0.8,6.2l1.1,1.4l4.5,1l1.7,1.8l3.9,0.3l1.8,1.9l4-1.2
	l-1.8,2.5l-1.5,5.1l-11.8,7.7l-1.6,1.6l-2.2-0.9l-3.6,0.9l-5.1,3.4l8.1-2.3l1.2,1.7l10.4-3.4l0.3,1.4l4.1-4.1l8.5-5.9l0.7,0.4
	l7.5-5.9l-1.9-2.3l2.5-4.2l6.6-7.9l5-1l1.6,1.1l-6.1,1.7l-1.7,6.5l0.2,3.5l2.1-0.2l10.3-6.2l0.8-2.3l-0.9-3.6l3.1,0.8l2.2-1.5
	l6.4,3.9l-0.5,1.1l14.6,1.8l3.4-1.1l1,1.5l12.6,6l2.1-1.3l0.2-7.3l1.7,3.3l8.2,5.9l0.7,2.4l7.1,4l1.8,5.1l1.7-4l3.6,7l2.4-4l-1.9-5
	l-7.5-0.8l-11.5-11l-6.2-4.6l-4.8,4.7H144l-6.5-4.3l-6.4-0.3l-9.1-57.6l-1.6-2.7l-3.7-2.2l-5.5,1.1l-4.3-0.9l-5.4-2.1l-5.7,0.4
	l-1.5-2.7l-4.6-0.7l-0.8-1.7l-2,2.3L86.2,443.7L86.2,443.7z"/>
</svg>
