<svg xmlns="http://www.w3.org/2000/svg" viewBox="0 0 64 64">
  <circle cx="32" cy="32" r="32" style="fill:#d2a3a3"/>
  <path d="M24.29,19c3.14,0,5.39.79,6.73,2.38a6.89,6.89,0,0,1,1.48,4.5,12.55,12.55,0,0,1-.18,2l-1.41,8a10.79,10.79,0,0,1-3.53,6.51A10.66,10.66,0,0,1,20.11,45H9.64L14.21,19ZM22,24.66H19.68L17.12,39.34h3.42a3.68,3.68,0,0,0,2.65-.91,5.38,5.38,0,0,0,1.31-3l1.05-5.9a8.72,8.72,0,0,0,.14-1.44Q25.69,24.66,22,24.66Z" style="fill:#111111"/>
  <path d="M51.47,35.46H41.89L40.24,45H33.72L38.29,19H56.36l-1,5.62H43.76l-.9,5.18h9.58Z" style="fill:#111111"/>
</svg>
