<svg xmlns="http://www.w3.org/2000/svg" viewBox="0 0 64 64">
  <circle cx="32" cy="32" r="32" style="fill:#ffe6c6"/>
  <path d="M18.71,45.34q-5.11,0-7.06-2.38a7,7,0,0,1-1.33-4.53,16.65,16.65,0,0,1,.29-2.92l1.26-7.2q1.7-9.64,11.81-9.65c2.78,0,4.89.6,6.33,1.78a6,6,0,0,1,2.16,4.88,10,10,0,0,1-.34,2.56,10.51,10.51,0,0,1-.67,1.94l-.36.65H24.43a4.93,4.93,0,0,0,.94-3q0-3.24-2.7-3.24c-2.43,0-3.88,1.41-4.36,4.21l-1.22,6.92a10.35,10.35,0,0,0-.18,1.9c0,1.66,1,2.49,2.93,2.49a3.61,3.61,0,0,0,3.76-2.95h-3l.72-4h9.54l-.57,3.1-.18,1Q28.64,45.33,18.71,45.34Z" style="fill:#111111"/>
  <path d="M50.78,35.33H41.21l-1.66,9.5H33l4.57-25.92H55.68l-1,5.62H43.08l-.9,5.18h9.58Z" style="fill:#111111"/>
</svg>
