<svg xmlns="http://www.w3.org/2000/svg" viewBox="0 0 64 64">
  <circle cx="32" cy="32" r="32" style="fill:#edcae1"/>
  <path d="M32.81,18.91,28.27,44.83H21.76L17.22,30.65,14.77,44.83H8.26l4.57-25.92h6.7L24,32.16l2.34-13.25Z" style="fill:#111111"/>
  <path d="M40.23,37.45q0,2.49,3.58,2.49c2.39,0,3.58-.75,3.58-2.23a2.25,2.25,0,0,0-1.22-2,12.4,12.4,0,0,0-3-1.26c-1.17-.33-2.33-.72-3.5-1.17a7.29,7.29,0,0,1-3-2.09,5.25,5.25,0,0,1-1.22-3.54q0-9,11.63-9c2.83,0,5,.54,6.42,1.6a5.2,5.2,0,0,1,2.18,4.45,7.32,7.32,0,0,1-.27,2,4.73,4.73,0,0,1-.56,1.35l-.28.43H48.25a2.9,2.9,0,0,0,.8-2.09c0-1.56-1-2.34-3.06-2.34q-3.85,0-3.86,2.45a2.17,2.17,0,0,0,1.23,1.94,10.7,10.7,0,0,0,3,1.14c1.16.27,2.33.62,3.51,1a6.91,6.91,0,0,1,3,2,5.49,5.49,0,0,1,1.22,3.69q0,4.57-2.74,6.78t-8.42,2.22q-5.69,0-7.78-2a5.57,5.57,0,0,1-1.54-4.17,12.63,12.63,0,0,1,.21-2.2l.11-.58h6.48l-.07.44A3.12,3.12,0,0,0,40.23,37.45Z" style="fill:#111111"/>
</svg>
