<svg xmlns="http://www.w3.org/2000/svg" viewBox="0 0 64 64">
  <circle cx="32" cy="32" r="32" style="fill:#ce98c4"/>
  <path d="M16.78,37.45c0,1.66,1.2,2.49,3.58,2.49S24,39.19,24,37.71a2.24,2.24,0,0,0-1.23-2,12.06,12.06,0,0,0-3-1.26c-1.16-.33-2.33-.72-3.49-1.17a7.29,7.29,0,0,1-3-2.09,5.2,5.2,0,0,1-1.22-3.54q0-9,11.62-9c2.84,0,5,.54,6.43,1.6a5.22,5.22,0,0,1,2.18,4.45,7.32,7.32,0,0,1-.27,2,4.73,4.73,0,0,1-.56,1.35l-.29.43H24.81a2.89,2.89,0,0,0,.79-2.09q0-2.34-3.06-2.34-3.86,0-3.85,2.45a2.18,2.18,0,0,0,1.22,1.94,11,11,0,0,0,3,1.14,35.7,35.7,0,0,1,3.51,1,6.79,6.79,0,0,1,3,2,5.45,5.45,0,0,1,1.23,3.69c0,3-.92,5.31-2.74,6.78s-4.63,2.22-8.42,2.22-6.39-.67-7.78-2a5.58,5.58,0,0,1-1.55-4.17,11.79,11.79,0,0,1,.22-2.2l.11-.58h6.48l-.08.44A4,4,0,0,0,16.78,37.45Z" style="fill:#111111"/>
  <path d="M51,35.33H41.41l-1.66,9.5H33.23l4.58-25.92H55.88l-1,5.62H43.28l-.9,5.18H52Z" style="fill:#111111"/>
</svg>
