<svg xmlns="http://www.w3.org/2000/svg" viewBox="0 0 64 64">
  <circle cx="32" cy="32" r="32" style="fill:#f7aab0"/>
  <path d="M19.3,39.09l6.84-19.62h7L23.33,45.39H11.81l-.28-25.92h7l-.11,19.62Z" style="fill:#111111"/>
  <path d="M41,45.34Q35.9,45.34,34,43a7.06,7.06,0,0,1-1.33-4.53,16.65,16.65,0,0,1,.29-2.92l1.26-7.2Q35.86,18.67,46,18.66c2.78,0,4.89.6,6.33,1.78a6,6,0,0,1,2.16,4.88,10,10,0,0,1-.34,2.56,11.46,11.46,0,0,1-.66,1.94l-.36.65H46.73a4.93,4.93,0,0,0,.94-3q0-3.24-2.7-3.24c-2.42,0-3.88,1.41-4.36,4.21l-1.22,6.92a10.35,10.35,0,0,0-.18,1.9c0,1.66,1,2.49,2.93,2.49a3.62,3.62,0,0,0,3.77-2.95H43l.72-4h9.54l-.57,3.1-.18,1Q50.95,45.33,41,45.34Z" style="fill:#111111"/>
</svg>
